<?xml version="1.0" standalone="no"?>
<!DOCTYPE svg PUBLIC "-//W3C//DTD SVG 20010904//EN"
 "http://www.w3.org/TR/2001/REC-SVG-20010904/DTD/svg10.dtd">
<svg version="1.0" xmlns="http://www.w3.org/2000/svg"
 width="260.000000pt" height="260.000000pt" viewBox="0 0 260.000000 260.000000"
 preserveAspectRatio="xMidYMid meet">

<g transform="translate(0.000000,260.000000) scale(0.100000,-0.100000)"
fill="#000000" stroke="none">
<path d="M1420 2104 c0 -64 -36 -120 -119 -187 -190 -153 -199 -195 -75 -335
50 -57 72 -64 31 -10 -57 77 -70 133 -43 186 8 15 52 63 99 107 46 44 94 99
106 122 22 44 29 137 11 148 -6 4 -10 -9 -10 -31z"/>
<path d="M1455 1879 c-74 -38 -111 -69 -134 -110 -29 -50 -24 -94 16 -153 35
-51 42 -75 32 -103 -12 -33 16 -18 41 22 28 45 25 64 -15 131 -19 32 -35 62
-35 66 0 34 53 94 125 142 47 31 27 34 -30 5z"/>
<path d="M1664 1489 c43 -33 36 -81 -18 -135 -50 -51 -46 -56 11 -15 49 36 73
68 73 99 0 29 -42 72 -71 72 -21 0 -21 -1 5 -21z"/>
<path d="M1015 1474 c-95 -35 -55 -55 123 -62 129 -5 332 12 332 27 0 4 -26 4
-57 0 -87 -11 -328 -10 -357 1 -32 12 -33 24 -3 38 32 15 9 13 -38 -4z"/>
<path d="M1067 1346 c-22 -22 -16 -31 31 -47 79 -28 405 -8 374 23 -7 7 -45 7
-119 0 -150 -13 -259 -3 -265 25 -3 15 -5 15 -21 -1z"/>
<path d="M1100 1215 c-18 -21 -5 -33 58 -51 66 -20 216 -15 272 8 35 14 35 15
12 27 -17 9 -41 9 -95 2 -83 -12 -182 -5 -214 15 -18 11 -23 11 -33 -1z"/>
<path d="M915 1126 c-17 -7 -36 -20 -44 -29 -11 -15 -10 -18 12 -26 91 -35
540 -40 657 -7 43 12 46 14 15 10 -151 -22 -495 -19 -582 5 -45 12 -55 33 -25
50 24 15 3 13 -33 -3z"/>
<path d="M1637 1030 c-60 -19 -188 -38 -287 -43 -44 -3 -40 -4 20 -5 119 -3
309 32 326 59 3 5 4 9 2 8 -2 0 -29 -9 -61 -19z"/>
<path d="M1148 983 c7 -3 16 -2 19 1 4 3 -2 6 -13 5 -11 0 -14 -3 -6 -6z"/>
<path d="M888 694 c-3 -192 -3 -196 -27 -215 -22 -18 -23 -49 -1 -49 23 0 72
57 80 95 5 22 10 113 10 203 l0 162 -29 0 -30 0 -3 -196z"/>
<path d="M1040 791 c-14 -4 -26 -14 -28 -22 -2 -13 6 -15 53 -11 62 5 85 -7
85 -43 0 -18 -7 -25 -30 -29 -16 -3 -43 -9 -60 -12 -35 -7 -70 -47 -70 -81 0
-32 42 -73 75 -73 14 0 40 7 58 16 21 12 32 13 35 5 2 -6 12 -11 23 -11 18 0
19 8 19 114 0 112 -1 115 -26 135 -27 22 -83 26 -134 12z m110 -176 c0 -38
-20 -55 -64 -55 -23 0 -46 24 -46 49 0 22 33 41 71 41 38 0 39 -1 39 -35z"/>
<path d="M1248 795 c-4 -4 -1 -26 6 -48 7 -23 25 -82 40 -130 l28 -88 36 3 37
3 32 96 c41 120 46 164 19 164 -24 0 -29 -12 -51 -105 -10 -41 -21 -82 -26
-90 -9 -17 -4 -28 -46 105 -22 72 -32 91 -48 93 -12 2 -24 0 -27 -3z"/>
<path d="M1550 791 c-14 -4 -26 -14 -28 -22 -2 -13 6 -15 53 -11 62 5 85 -7
85 -44 0 -21 -6 -24 -52 -30 -94 -13 -137 -85 -83 -139 28 -29 63 -32 108 -9
21 12 32 13 35 5 2 -6 12 -11 23 -11 18 0 19 8 19 114 0 112 -1 115 -26 135
-27 22 -83 26 -134 12z m110 -176 c0 -38 -20 -55 -65 -55 -17 0 -29 8 -37 25
-16 36 12 65 64 65 37 0 38 -1 38 -35z"/>
</g>
</svg>
